<svg xmlns="http://www.w3.org/2000/svg" width="24" height="24" viewBox="0 0 24 24">
    <path d="M9.5 8c.276 0 .5.224.5.5 0 .245-.177.45-.41.492L9.5 9h-2c-.245 0-.45.177-.492.41L7 9.5v7c0 .245.177.45.41.492L7.5 17h7c.245 0 .45-.177.492-.41L15 16.5v-2c0-.276.224-.5.5-.5.245 0 .45.177.492.41l.008.09v2c0 .78-.595 1.42-1.356 1.493L14.5 18h-7c-.78 0-1.42-.595-1.493-1.356L6 16.5v-7c0-.78.595-1.42 1.356-1.493L7.5 8h2zm8-2c.276 0 .5.224.5.5v5c0 .276-.224.5-.5.5s-.5-.224-.5-.5V7.705l-4.104 4.105c-.196.196-.512.196-.707 0-.196-.195-.196-.511 0-.707L16.29 7H12.5c-.276 0-.5-.224-.5-.5s.224-.5.5-.5h5z"/>
</svg>
