<svg width="20" height="24" viewBox="0 0 20 24" fill="none" xmlns="http://www.w3.org/2000/svg">
<path fill-rule="evenodd" clip-rule="evenodd" d="M10.4861 23.8742C10.1841 24.042 9.81692 24.042 9.51491 23.8743L4.62873 21.1602C1.77227 19.5728 0.000488281 16.5611 0.000488281 13.2931V1.00009C0.000488281 0.447807 0.448204 9.15527e-05 1.00049 9.15527e-05H19.0005C19.5528 9.15527e-05 20.0005 0.447807 20.0005 1.00009V13.2931C20.0005 16.5614 18.2284 19.573 15.3711 21.1603L10.4861 23.8742ZM14.3998 19.4119L14.6347 19.2754C16.7189 18.0098 18.0005 15.7443 18.0005 13.2931V2.00009H2.00049V13.2931C2.00049 15.8349 3.37859 18.1774 5.60007 19.4119L10.0004 21.8561L14.3998 19.4119ZM9.50019 11.5858L7.7073 9.79288C7.31677 9.40236 6.68361 9.40236 6.29308 9.79288C5.90256 10.1834 5.90256 10.8166 6.29308 11.2071L8.79308 13.7071C9.18361 14.0976 9.81677 14.0976 10.2073 13.7071L15.2073 8.7071C15.5978 8.31657 15.5978 7.68341 15.2073 7.29288C14.8168 6.90236 14.1836 6.90236 13.7931 7.29288L9.50019 11.5858Z" fill="#262626"/>
</svg>
