<svg width="18" height="24" viewBox="0 0 18 24" fill="none" xmlns="http://www.w3.org/2000/svg">
<path fill-rule="evenodd" clip-rule="evenodd" d="M17 0C17.5523 0 18 0.447715 18 1V23C18 23.5523 17.5523 24 17 24H1C0.447715 24 0 23.5523 0 23V1C0 0.447715 0.447715 0 1 0H17ZM16 2H2V22H16V2ZM9 3.939C11.2093 3.939 13 5.72972 13 7.939C13 10.1483 11.2093 11.939 9 11.939C6.79072 11.939 5 10.1483 5 7.939C5 5.72972 6.79072 3.939 9 3.939ZM9 5.939C7.89528 5.939 7 6.83428 7 7.939C7 9.04372 7.89528 9.939 9 9.939C10.1047 9.939 11 9.04372 11 7.939C11 6.83428 10.1047 5.939 9 5.939ZM4 17H13.892V15H4V17ZM6 20H12V18H6V20Z" fill="#262626"/>
</svg>
