<svg width="22" height="26" viewBox="0 0 22 26" fill="none" xmlns="http://www.w3.org/2000/svg">
<path fill-rule="evenodd" clip-rule="evenodd" d="M3 0H19C20.6563 0 22 1.34372 22 3V23C22 24.6563 20.6563 26 19 26H3C1.34372 26 0 24.6563 0 23V3C0 1.34372 1.34372 0 3 0ZM19 2H3C2.44828 2 2 2.44828 2 3V23C2 23.5517 2.44828 24 3 24H19C19.5517 24 20 23.5517 20 23V3C20 2.44828 19.5517 2 19 2ZM9 16V18H5V16H9ZM17 8V6H5V8H17ZM17 11V13H5V11H17ZM11.0507 17.8788C11.4412 17.4883 12.0744 17.4883 12.4649 17.8788L13.1717 18.5856L15.2926 16.4639C15.683 16.0733 16.3162 16.0732 16.7068 16.4637C17.0974 16.8541 17.0975 17.4873 16.707 17.8779L13.879 20.7069C13.4885 21.0975 12.8553 21.0976 12.4647 20.707L11.0507 19.293C10.6602 18.9025 10.6602 18.2693 11.0507 17.8788Z" fill="#262626"/>
</svg>
